<mxfile host="Electron" agent="Mozilla/5.0 (Windows NT 10.0; Win64; x64) AppleWebKit/537.36 (KHTML, like Gecko) draw.io/24.7.17 Chrome/128.0.6613.36 Electron/32.0.1 Safari/537.36" version="24.7.17">
  <diagram id="C5RBs43oDa-KdzZeNtuy" name="Page-1">
    <mxGraphModel dx="1434" dy="836" grid="1" gridSize="10" guides="1" tooltips="1" connect="1" arrows="1" fold="1" page="1" pageScale="1" pageWidth="1169" pageHeight="827" math="0" shadow="0">
      <root>
        <mxCell id="WIyWlLk6GJQsqaUBKTNV-0" />
        <mxCell id="WIyWlLk6GJQsqaUBKTNV-1" parent="WIyWlLk6GJQsqaUBKTNV-0" />
        <mxCell id="KoPDg6AwPJM6sa3NV6Al-0" style="edgeStyle=orthogonalEdgeStyle;rounded=0;orthogonalLoop=1;jettySize=auto;html=1;entryX=0;entryY=0.5;entryDx=0;entryDy=0;exitX=0.5;exitY=0;exitDx=0;exitDy=0;" edge="1" parent="WIyWlLk6GJQsqaUBKTNV-1" source="WIyWlLk6GJQsqaUBKTNV-3" target="WIyWlLk6GJQsqaUBKTNV-7">
          <mxGeometry relative="1" as="geometry" />
        </mxCell>
        <mxCell id="WIyWlLk6GJQsqaUBKTNV-3" value="&lt;font style=&quot;font-size: 14px;&quot;&gt;nn.Modules&lt;/font&gt;" style="rounded=1;whiteSpace=wrap;html=1;fontSize=12;glass=0;strokeWidth=1;shadow=0;fillColor=#e1d5e7;strokeColor=#9673a6;" parent="WIyWlLk6GJQsqaUBKTNV-1" vertex="1">
          <mxGeometry x="70" y="200" width="120" height="40" as="geometry" />
        </mxCell>
        <mxCell id="KoPDg6AwPJM6sa3NV6Al-2" value="" style="edgeStyle=orthogonalEdgeStyle;rounded=0;orthogonalLoop=1;jettySize=auto;html=1;" edge="1" parent="WIyWlLk6GJQsqaUBKTNV-1" source="WIyWlLk6GJQsqaUBKTNV-7" target="KoPDg6AwPJM6sa3NV6Al-1">
          <mxGeometry relative="1" as="geometry" />
        </mxCell>
        <mxCell id="WIyWlLk6GJQsqaUBKTNV-7" value="weights&lt;div&gt;(Parameters)&lt;/div&gt;" style="rounded=1;whiteSpace=wrap;html=1;fontSize=12;glass=0;strokeWidth=1;shadow=0;fillColor=#dae8fc;strokeColor=#6c8ebf;" parent="WIyWlLk6GJQsqaUBKTNV-1" vertex="1">
          <mxGeometry x="240" y="130" width="120" height="40" as="geometry" />
        </mxCell>
        <mxCell id="KoPDg6AwPJM6sa3NV6Al-7" value="" style="edgeStyle=orthogonalEdgeStyle;rounded=0;orthogonalLoop=1;jettySize=auto;html=1;" edge="1" parent="WIyWlLk6GJQsqaUBKTNV-1" source="KoPDg6AwPJM6sa3NV6Al-1" target="KoPDg6AwPJM6sa3NV6Al-6">
          <mxGeometry relative="1" as="geometry" />
        </mxCell>
        <mxCell id="KoPDg6AwPJM6sa3NV6Al-1" value="Flat_PARAM" style="rounded=1;whiteSpace=wrap;html=1;fontSize=12;glass=0;strokeWidth=1;shadow=0;fillColor=#fff2cc;strokeColor=#d6b656;" vertex="1" parent="WIyWlLk6GJQsqaUBKTNV-1">
          <mxGeometry x="551" y="130" width="120" height="40" as="geometry" />
        </mxCell>
        <mxCell id="KoPDg6AwPJM6sa3NV6Al-3" value="torch.cat([torch.flatten(weight.&lt;div&gt;detach()&amp;nbsp;&lt;span style=&quot;background-color: initial;&quot;&gt;for weight in weights)])&lt;/span&gt;&lt;/div&gt;" style="text;html=1;align=center;verticalAlign=middle;whiteSpace=wrap;rounded=0;" vertex="1" parent="WIyWlLk6GJQsqaUBKTNV-1">
          <mxGeometry x="370" y="110" width="180" height="30" as="geometry" />
        </mxCell>
        <mxCell id="KoPDg6AwPJM6sa3NV6Al-4" value="" style="shape=image;verticalLabelPosition=bottom;labelBackgroundColor=default;verticalAlign=top;aspect=fixed;imageAspect=0;image=data:image/png,iVBORw0KGgoAAAANSUhEUgAAAewAAADUCAYAAABedBAUAAAAAXNSR0IArs4c6QAAAARnQU1BAACxjwv8YQUAAAAJcEhZcwAADsMAAA7DAcdvqGQAADpeSURBVHhe7Z0PdFXVne+/iEpbJAmYxAgCAgkzIArIS5EoLQQzGkZcTxqI2NG3OgX0oXQ6q11QXqq8tGZRWO2aTrEZDc7qrDIV+SPMKjboivxpUSjNMAFNYZ65gIhISCIkwbRFBd/e++zzN/eee25y701u8v2sddY9Z59z9tln7333b/9++3f2HjBq1KjPEYWxY8fi5MmT+ogQQgghySaQwJ4wYYLe610cP35c7xFCCCF9m2v0LyGEEEJ6MRTYhBBCSApAgU0IIYSkAHEW2N/GV3++CwvW/ggZOoQE54mqH+PXFbn6yM2S8hacrrysjwghhPQ3qGGnAo+34/t3XY/NywbpAEIIIf2NOAvsn+K3TxZj68rvoVWHkO5yGbvntyK0PQ0rdAghhJD+R8DPur6PqWsX4+ZTL6L6+Vd06NdcYRlPbEPR7YONUx+8jq1rfmrsW0hz+X3I1kcd7+i4vvwjzP1fw3D8yaU4pc8pvlaFBV++gBot/F3xC5r2FOP5ZwN+1rVsOfaUjNYHQMO27+LxSmN/TsVq/AN+heqsJ7BQW6Pt87lYs+PrQOVbGLbqfuSps6expXA9nlf7knvxwh7zHPDxwefxYFlI7fvHLZHxP4Hp6fpQ4LxfIk3h388agtHUrgkhpF8TUMN+BadOdWDwmHzH2PRIpN3QgXP/ZQjw1udLsFVo1zXvdKhjN1K434fBQkjLa7Y++To6bl+Mr35NnPpDIzowDBlfNq4MixDqBbdfwH+qe43tt2a/ISpCoE45jsLC7xrbttPIK1mOJ/RZyQ0znsDc5ucjnB+C6avuxoU1xv1bQqOxsOpefU4K3PtxsxCyRvyv4ZyI64Vl+rTAGXfFwUvIK/o65uhzT1QJYd38mr5Xxq1PWFxB4YQ/IXSUwpoQQvo7gU3irc+/iaYbcjHGFKxfm4jsD95E3R/0sR9fzsfNOIoDlnb+UxwVgj17/LfF/hm0f2yEKm3751UYI3YzsoaJhzY6TOsjMUoK+Jh5A48vfUPvCyqPo0F0EEYX6WNJ6DVbqw1zvmFbOVbVGPvPHzkNZN1kCN2i6bgNdfhnSyN+A1ukUJ5iCnSBI+7d+0L4OH2YoY0LwT03V2jrzrR14jNkp38JTZ0EOSGEkP5GDGPYP8X7HwzGzXcaUnPM+JFoetdr9o7AyGEYfMNkFEkPcr3Z5u1X0No6GGkjhZC+cxg6PhC/ulPQcfGMsfOH76F6zxlkF+r7Y/RCl97Xe/aYm22+jswQDPO7yBS6ecNwQ/pUlFlx/xhlM4aoS+LCHCGw9S4hhJD+TUxOZ6fePaPN4t/GqFvO4P3AZmnBx0dR4zBpq02Pc1+82IHBWd/GGKFav7/7AtJEp2Do0MHoaHY84JWl1n3/2SqEvxDaOfqUH3IceaHUZLXZWZqtG/S5yFzCBb+L2i7YcbTVocKKW2++WnMM7L4WTXqXEEJI/yY2L/FXjqHphmEY+rWJGPzO624nMT/UfZNR8ISfTTsHaa3HcOoPjUJ9vw+jMjrQrhVsL1LAd6KwHFurq1H9cjlm6SALh4B9ospfw1bn20J4Q5vA3dyLF0pG4+Njh7BbHkrzudCw/yHCt9O+1JzHOYzGVD3ebXQsjH0bIbDb/oTsLkRPCCGkbxGbwFZjz8PwPwqHWc5mBtKpzGHqvuU+w3S9So5RS+TnXoajmWkSl5tyOhO0Nl/A4NsnA8rE/lO83zoS2TdcQKseH5ce4s77iqQD2srvQYj2qOwue0sJVdNsPbe5rrOGnXu/ZdJemCU05od+ZQhkTV6JafI2HMxsL+438Lh2NDPvl5vT6Swy4l7l4GbcU5b1lnJKczMQe45/CblzOrBEhxBCCOmf9PvVuqRmK4VleDO28dnVsBrnp1jJ5jJ2v34e2D4Kc17QQYQQQvodMWrYJPkMwpztGcid3451OoQQQkj/gwI7FXghDc/+/hOUci5xQgjpt/R7kzghhBCSClDDJoQQQlKAQBr22LFjcfLkSX2UXKZ95QG9RwhJJod/96reI4T0BqhhE0IIISkABTYhhBCSAlBgE0IIISkAx7CJD3l49B+KMP6L+vD8ETz9iwPApL9F2QOj8QUV2IK3frQFr6l9klgilEeC6DyGPRsVRStx4x/vxxMf6iBCSNIYmJ6e/n/1fkSGDh2Kixcv6qPkMnz0eL2XQOYsxA8fvBUfHWrAeR3UO5AN9MO454Za1AaeuD1+3FHyEL6SdhZbf/ISXn6zFnuP6MndmxqwXx63ZqNg/PU49+YfEdMKoFLg//1UDI50Xw+Wx/3fWIbS3FbsP3ZBh/QeIpZHgjh3+l29Z/D49OfxN5dfwcL//i8dQghJJjSJk4gMHzIIfzn7Lt7Wx6Rn6dHyGP5zLBhxAlsPbdABhJBk00dM4gVY9r0puFkf/SVUg4ptxhIfUmO6+yaH2VabcyGv+e/xDtOuk6BmXvncW3Dy1Q5MM+P582ls/effWI2q8Xx9gMt499V/xcZ6feg1cTqe677PxvluftxR8k0sGHLcNpmq9x6Mwyr+6Ok20zbqrM/zXHE68byXFbe7nGx0vsBpanfiLA8/s3CQ9wqPyq/cQfrIgRW/8dwh9ZU4OcosG095SstAfqY+EBpqbSUq9SoyMv55+B0ODymyytV53q8uGPiXh189k+emXarBTnzFekfz2Ua6GnExd7QoF/HMWuBu+Q7ived+4/+oa2kKJ6R30AdM4rIhuxs5p2tQXvU69r55HW5/8G7kDzLMyKEjrbhl2u2YOvE67D3yBTy66E6ki2tVo2eadgeNQeGwZtvUGNjEOxL594zFxPGf4dCP/g0b3hTPuutOfHmkYVKVjeH9WbYJ86OcO/GVu/IwSMevTJyox9PPbRfPdD83dEQey7SPwydHKrFuozyuDWyqvWninbhtUIttNs0ej69Y5mtvuq/DhNl/jVEqz6TQm4cH7xmHG68Drh02DoX35IvtDtzSWoe3nQt0u+K0uaPkXuTU/ht+ul2/g5UnR1Er31OZ0s1ny2t0vAHK4/5vPIypl4UQVXkm4v7q3Zin87tzeTjfy7g/EueP1an8HZSXj+xGsy6JZ1tm5xsx+a5xuHW0fX5Q3gxMHSHrlbxG5Nusdqwzy1K8w4P5t1llLctjcu54696Pcu7A9Nzhltk/cl2IXh7R6lnu1HyMHTUOt31qxO98NlS6bsC5V/fio5Hif5It8v31Noy7MxNDfrUDyvg95Jv41oS/YP8fqnFYHhNCeoTUN4lPGo9ROI2dltZxAG+GLuPmUQX6uAEb//kIzt00AY+WTMV417XxQGozpibUgKNnL+MLQ7LEfgHuEdrMuXpbu3t72+/w7p8zMXaODpDcdAvu17vJxZnuAzgppMbQoXKl8AOo/FElnv5RjUirodE/rY6dlgF/3t62xXGtM0+6SwHGSmuJpVGLsq1vwRdGjMcdOiTye8UJoXmaGu5r77cAaUP1s0W+OR3Adn+AcxiCrEn6WOK49+3/bsRfvjgYw9WRJmxdiFYeAeuZtDTo9HV69vnjVnk547EYMgw3XLLXlCeE9AypL7BvGowvfHE0FnxvGX6ot86mTdHo1V7C+NwheHd3dPNot7Ea8cu45OM19fa2f8Vb5zNxt053WUkcBUtPIk3lvuXRRSYNxVDY+aU2hwk6GZx73ymUt+Bpz/CHla6wpv/IdK8u+NcziWvsWwjlik7DGJEpTAszNkMISTp9w+lMag9K63BsTm1HCpB84C0ptB9YmHiNtv2ibhwHYYirrcvCEGuM0uC1X5hpPoKLuUV9QGgXYNkDho+AWRZbQ/FcZUyO7Zp5prcAY9SJRpqlDV8JM11HhIYdG12vC9HrWXfY0x6lN0AISQqpL7Cl6VFo2PMiNm55eHSOFCB1eE1oREqL+YZpLtec78BfvpiDyU7zZVcQHYN50jyptDDDHHuzCDPNtXeUTMDNonPxpuVo5KQZl/6sdy0a0Nwu4rDM+zFiafqGEO3szJU4Ll7UBlSdJy7qL+Ki0JRdJlsnkcqj/l28/+cw5RdHPrx02WNij4E/d8D0ybr/G7Fp2G7C1YVIxFrPusClC/h4yDDxTyKE9CR9wOnsDGq1o9mDyhnH2CYoRyPteYvT2PGL3yvnntBn2Si486/xN3mms5CgqQFtylFnhr5/jOWw4490croFt47Xzx2fgWaH5690HBs0sQj332+cv21YK976yX/gLXVWpu1hLJit75VORReOoPylo+qsSejIdZhw/xTr3Qpygn0jfP7Yx8rZ6ysq/qE4V3sWg0c4nc6y8Mm7thOZdEwa/slJR9yGk1X6JWeYgdQmn3pQ5JV432vxJYxSaTPz7AwuS6em23Vejv8MJ0MDcaPTAU6WmXLK+qpxjdehLWJ5XMDbhwxHMzvfnHkS5L38ceeb2Kx6YuTHoKbwDmznj31RObhN12nKbjyN5mE3WGnxdwIMUhcil4d/PfPPAztdf7Lfr8NIW4PpdPYJcPst81Bw/Vm83PKeuo8Qknw401m3kB68E3DJ9akWIX0D10xnw3+ON+4Ctm5/Ei/oIEJIcuHEKYSQ6Hz4JLaeHYcF05foAEJIsun1GnbZL6rDTiBi4J1cIp5I7dlnHFJNqIEe0bClSTqy57VnMg+iYJ7FDucSJ6R3QZM4ISQsnQU2IaQnoUmcEEIISQF6vYbdk88mhBBCegvUsAkhhJAUgAKbEEIISQEosAkhhJAUgAI7kRS9hG/teQ/PqO0NTNXBbtbiUXl+x0vI0SFJo7AcW6urUf3cYh2QAKbtxuV/3IRwjhI5FW/rvHHkT6A8I/FD1r+3UVykD3sbj7fj9Ovv660FmzpNZxv0/7MExTvew6PL9GFULmO39dz3sftxHWwyfBM+jVCvCUkUFNiJpOYR/KzwVvxgzQG06qDYiLWR6WXIRu3BbFy3eREG6CALIZgXzgBq14j8kXlUeC/qZHh/zzPSmbYb8ex9ozD6vkwsitf86FEZhDnqmSNwoE0HOflwEQZ+VIBPHlunAwhJPBTYPc5KbJQC6qFH0KhDksae1Vgwdy7mPvWiDognS3C1tAA49DNcE26SjbxsZLTVo65GHxPSJXru/3PNL5/FdTeW4so0HUBIguFnXVGRGlsZ8tP1IULYaWqDyhw3DfVrmjBzVQEyZFDbAVR5Gw9p5l2Vjf3WfQbSJLx0RppxENqMHyxdaewLpla9h3m5+sBB68EK/Kxsgz6KxGKsr54P7JiL5dal7rDFz1Vj/ljjTMehdVhQvs84MFmyHtUPjdMHHaj98QKs3iN2ZficC1j38Go475i1eitWZL1uC39pCv9KE67/pzDatUC9+8T6znllEiHPOpWHI7+7l2dGmhZiPfZnlVnxnNp2KzZWGvtGeZdijD5ylZmV3sOYZF7jqQuu8kY7atfcgV2yw7LsDTwzpQm1WQXivUT4tnrklYj6FK4udYlodbgYLeYzZZD3uTJ9JXbGOvMk1jzrVBaeuDudlybxOQPx7MLB8Jag3//HwFNeAiNtOj/geE+dDnfaJVewactZZO8ehTnhJlGPUs8JiSfUsKOQU7Ec+c2iMVBmW4fp1iIX81RDLc9VoBYFWFgRbL7lxrI7VJxVB9t1iE3dUh1fm9HImM8PIniAF3FU9HHGTXaMTReORA5O4Ki+/cWnhGYttOvt4fpCcmz7oRwhpI1r5u5oRP531wuRLzhxAR1pw8Rb+3P1tlxc8//2dGrEpFCV49OqoU0vwFI9Xv2tgHmWU1EKVJr54c7v7uWZQcaMMsxsrjDu3RbCmBJ7HH1qleic6Th/ULgZp3JLPaZ3URek8FNmfnFevF+ReV4I9CIh2Mw0VR0E8pc5xl1zC5BZcyt2htKQXyLrk7x/EqbGYWw5eh02nxkm3VLoTTls3+vJE0nkPJOCsRRDhRA27t+Mi+JaO89E3OK59rBIbGXl9//p/GyjXhhswK6HjPc06o5MRzhhHYDDh3FtxiR8PlwfE5JAKLCDkDvNx/lJakpmA7gBdcfakZEVTZwlnhe316Jj7GRDyApmzZwIHHpFiPLoGNf+3NCoJRteQW37OEyWbdueM7bmJbXtl8sxS+zmZg1GR7O5IKm48EZRuc53bnwNoaobWanJxdhQN5bda2iligTkt9DUrLRUHsYpZCNHC826pU5BtxL14nWHjnB3NE5t01qz93zNI9joeMfGffVoTc+256oXeVGjhUXrwc0egRoHAtdh73utxEan5urJE0WkPCuajTyhxW6x3nslakS5j5myVh9L0pA3y52HcWFZqdKg7Wd7Ee+15gAwoxTFFcUYI94hZmGtaMCA1jR83vXFzwkJDAV2FGQvfmdIak4xaIJZUpvtYfbsxTFTyAqROnsCcGy/x+wdASl8B09fgWrpQa62Fcg3LblyVer2HIwsBBZPFgp3i61tN35oxp+Hz5VtNQFI07MuC0tTTyhpyMzTu9Js6nh2Z/N7CPWORl92TuyOiNT47HufMYdQkkCX6rAD0ypibG4Tc3h0nkk/BYcVRW7u8jKFZpk+n+SvAkQnasvBbOTPaMLOTub0oIjy/Qi4elMCOh2EeKDADoCpFZomvagNXrNDC+0x9mHv8Q7DLF44GxNxDHtNjTkAclxbmcMdmzEevg9nWgZj2LjFmJx5Aa8chegUzMLIzA5cOKFuFUitQ+/GlbV4VAg6WGbOSObQeNKOlgbxIzsK2mxqPnunaVAIwNQqPWaq7+26F3zXiLkOa+Q48bxcOeZt339Kn4uMzjOJw4pibU7haH4VILYqITznJVNoiw6Y9KPYKZ/b5c8qRT5GsCYREm8osGMihJZwn3iYiEZ9odAgTh3pam/dywY0NsNjQnQjncekFrw+TPu7b/8xdGSOxOKZE9G42+0k5seLR08IDftJlAstOiLDRwLH92LfiQvImfw1DEtrxBmrQ5BYrePiWd046vx2Ez3PgjK1SmiTLk92hyASjX04BzdfrI6c0LaXdUHDlkMQ3f5uPkodDkdbE87pXZUnej8crjyT5nFrnDg6jWeb9F4caGhCq8MHQHWYLKc7iR63Fh2GurL1MfmeuJHWpHYMMDOIkARCge2Lx4y5R/zpmx3jdYo05K/S54X2d9HhuCK1EzM8QzkkyeucDjnGfcpMmFtqXFvlFjR1S4VGY54TW0zmzD2r8XpLPuZPb7SczQykx7gh6KWnuGn+3rpajkYLNizXjmamSVxu2ulMEGoWmvv0ibggTezS9J45DuPaLwhRYHPNH0O4Ov1hXNXHQfHPMz0GWmLkxTOrstEQRsPuVp457puX5fAiFg37fukQZpZ1URNqY9Cw67YKjdqKuwyZx5KlYQepw5FpLNulhK5p1p7ZfKCzhh0pz6TJW2v09vMd38h7hhieUQ5oXoe4SET5/yhzN6zykk5xtkVECGtp2rfGrTdgV01IOc/FOlyAadPwWWs9BnB9cJIE+FlXt5B/fOkVbDoaEZsluPqP38eV//csrqsOJhx6GvWZUNauMJ8HkUgkPM98PutKDn6fdRl1/PPfjcbAwzqIkARCDZskiA24ZvMBYPq3cJWfvJA+yNXHvo9PP9pMYU2SBgU2SRwfLsJ1v27Cp6U9P+eyZWoPu/XiubSj4Pbg9m5J9rpOFOkf4fsR5xJPFOZc4mdR4Br71gzfhCs3HsD1v1yhAwhJPDSJE0IIISkANWxCCCEkBaDAJoQQQlIACmxCCCEkBaDAJoQQQlIACmxCCCEkBaDADsQirHnil9j09e/gbh3i5e57nscmeY3afoi/0+GBcM34ZH9i5PxkJ+YZmEivxCjTxHxG1q24zUVVPDPtdR85uchpXC7X22PrdLiN+cmde6nSMMj/SSxzfg/fhE/N55a/w/kASMpDgR0Psr6Dv58EHHnlMSx6Xm5P49/1qejYa/EaiyPYs6aZCzbEssiEi1gbONI9lNDrnd8+S2Hek52+a389GoNWiy2Z3y3LeQDkM1dvxrU6iJBUhgI7EJuwSgriX/0Eb+kQF5kZ+NKlBrzZrI9joWgkhnqWZSR9F6MTlpipbLsVt7lqVg9MyyqX/5Qd066tR01I/4ETp0RBmrqfmvQl4+CDXVj06iZj34G6ZnQDnosk0P2QWnAJsLMw8qIHUjuSixd0WrBB3WsvGSW1dNXoSU0v7HrLcpnEAIsryHinHEZVc7G1fnHrQffz1RzS1kpZ7ah1zKdupncLllvXWGlT6MUX9BFCm7WgkOHT0KLWKE4Tz9yMhomlyE93x9895KIRzpWb3Hki026vwuV8rpG2+jVNmGnmrVw6Ui104XkfC8f9rjIJVw7h4jDvl+fcc9a76oRP3O5ycmDlufudveWscNUzb1n456f/fNvOdw5fxp3Sb+a5fme51KqZXuM9wuXtOlwpL8aAF27HNVykg6Qw1LCj8NabTygz93P1f9IhNn/3gDFmrQT6kMl4So9h/+s9M/QVkbGmylQNobkqVSxjiKKxE0LVMKOLbVsIY0q0OdbUlkSYez1ib0PmQ26psaiDvG/NAWDGcntsVDSWRVhvPbtKroq0zG16lysfmffLNavHiHvM81OrhODT96r1lcWz7PHLXOTL+0TaM2aUIrNGDgmkIW9WPMy5Wrg0C2FlPd8t3NRqU/qceq9VThO3KKdV2dhvpju9AEUq3XJVKhGm1riWAsOM2yGAzDKJsA62WpZSClHHNae2dRZgYfGJ29Re5bCKFMZGusTm0KR9h16kYFSraOn7tjW58iSnYnnE/IyOzrdIa2yLjsLSGU12fsr6bCLfWdURXS/FteGFNSF9BwrsbvDvrxpj1kqYXzqK59T49WP45puipY+C2ZAajZCjkQ9skhSNnfNaufYwspETL2cmKejN+Gv2oqEtDZl5xqFsLDc6tLDGffVoTc/GzfpY4bjfe75uqbNRXYl6kQVDR5gCWWhaW/VzRRw18TSTLpPausjrsHm8FkVCk5PrIxtLQ8oyWo/atlxMsjoTUgs00+5Nd3dYi0mi32ato67yO15xd4+cWZOEFrve7jhUbvbkiSB3WgLG7UXnqkj6dvgI4Mp7jU7VgpeiX0tIH4ACO4WRJkDTi/yZsCbZ+GILEHstYrWFMb+3HttrCT5DA3Q0ptLEaqXbaYJOLDkjskUnoAnn9HFn2tHSoHeTSggtQkCPmaKtK0WzkZfejoZ9HtN0D3BzVpqyltjl5TR/Gx3PnSHbQpRsxzbVqcoqUFo+x8BJX4cCO0VR5ltlAtSaeSSzYhy5eNYcKxSNNhym9ghm3rAoE6vTK74bXvAx0ni2Se9FwmFFUOQiM9xKTXFnAxqlw2JuqSEU1disQ6vtYVymdL05haNpUpd18KIQ7skU2rIu5h0TWn9WKT99JH0eCuxUxqEtqjFQvW/R0ITW9EmY2k0zuRqnTPd4sjef0Rq00LaXhXNw88OhyaqxR70flMJybK2uRvXL5ZilgwIhhw3SC7AwbMNumLidY+05FcUYE4tZvuYMLgoh7zIXB0E8c6ar83VrZ8cvR2fC6KwZ+0E519yOjImzY/7Er+6IY5w4KoalID4YnRjb6mB09Fzocev9ZSuxq9LjZ0FIH4QC25cZWPl1h2PZLcVqf9MDi/T5RCI9aG2TsWmWNLWIxrJdSvgs1dfMbD7QWcOueQRblOOUcU1M6yM74jYcf2yTdt1WoVGb2uCeMmQei0HDFmnaH0qz01TUhNokadiGk5OhBRppl5udJ1JT3NnseW/lBR4UEf826fxnxm1PYmI5GarhA9OEbDsJ7neYlc3N1hjd8UpnPqdVwjdujTIdw34327nRv57JcWLD0UzfpzYzbs/QiDSXN28O09mIgDU0IjubZp2w86xuqeGQqK6Rzn5OS468V1lqdL206lViJqUhpDfAz7pIZ2RjKASp8ckSSThSe1Te545xfhU2CQ1hPnVKLfw+60oW/KyL9A2oYRPS0+RldxpSkN7ZGWhCY0oLa0JIPKGG3d9QmlvkMWc1ccbZ0tTTsIO8V1BTbQ/gnrBF0le+KTY07E/NgjmxOXnTk8q5xB8vwFV10I7rqGGTFIcCmxBCCEkBaBInhBBCUgAKbEIIISQFoMAmhBBCUgAKbEIIISQFoMAmhBBCUgAK7G5iLrEZdFnN3oJz4ZBIczCbM2jZS18Sa1rU5xbrgAio69YjylURWfxcNbauDj/x6udz38Hlx9bpI0JIf4ECu5uYS2z+5gMdkCL4roEcBDkb2g73GtgpQTcFaY8zbTc+md6E65L1LTMhpNdAgU0iYq7ZzWULHexZjQVz52LuUy/qgGSyDlcezMW1v57DPy4h/RBOnBIVuQDI/8aUIfrwg11Y9OomfWAjTeOzW/8F33zzoA4xuPue542FQzTv/fYxrDquDwLGHRG9AIKJczYvac5eiPXYn1VmzaAll7T0Cl9pGp/Z7J0FTC4IYa7+1Y5a53zWEWcUi2VmrsVYXz0f4/QRTm53CcBZq7dixfTB+gg4sWMulgeepMwTd3st1j28Gvu84RYdqP3xAqzeI3aXrEf1nAtYVwU8+d18qBQ40ibN1PPHql10HFqHBeX7jAMTef9DziecwPa5y2G+mfu93OfEWZS/vAL5afpQ4H2GNIV/krkreTOFEUJ6FeyoR+HvHhACtU0I0uel6ftfcCS9OPhYddZ38PeTmvEbda+x2cK6m3FLoVqSLYRp5CUZ5cpLUhir82q1p6CrdclVrWScYdbYrnkEP9Pxoc2xJnYM02gufm4yjkotVW3bcWLsfKw3h9ELy/Hk9EYhzMzzsQhrGfd85AhBZ947VwlryYtYLo9/XCtEtBSWZvxaWJuk5WPFd4fhdfPasfehvNA49eJTxj3bw/Ufpan9oRwh/HW86jkOhDBf4XivdYdyMN+xPOji54SwbhGdA32+8zOW4PO/SsO1f6SwJqS/QoHtyyLcdstp/MbSeg9i7X+dxpdGF+BuHRKd0bhtgt51EY+405A3K7zDmCLkWOpQrgWNbOT0gqUHX3zKqVm+iKNCOOUMdzpYjcNkn9eKxuAJs2NbJ9uF1Lh1+vbsxbH2wRjWWS3vxOL5+cChn7uFv4PFk8fhxA77vfeVv44TaRMxW3YGhLC/b6zoRPia2fPweUY7BpgLoBNC+h0U2H5kDRcibjT+VnuBq+2ro/XJADT/BN/87Wnc+lV979e/Ywvj7sYtteA1ctF+c23nINpzGjLz9G5PIk3H0tNab6aZWSHHiHecwLiH9HmHFhqEF59ah1oILVnHbWnuQWk/hr2W0N2H1Q/HpuGHZxZGZopuiPlOagtnnvdh+Ei9iAUhpL9CgR0VoQU7TNpq+9VP8JY+G5XjT1v3/aZtMp5yCu3uxm2ap8VWdTAb86IK7Xa0NOjdnkKZjqW2qU3H4cy/G5bb51qE8I1JaBtCVt3/41rkCCEZs9BOEM53NjaPOd6PD8/wz0pIP4dtgB/NB/DuJaEFP7BIB3SPU61/0nuCOMfdeLZJ74VnalUpxrTVoy5e6ys3NKE1fRKmRjKxq8+nImnIHbhwQu8KbdulYXsINbtGgmNjz5nOy4OqsO6Z3MMh02mb4hdjvem0ptiHvcc7hIYd4XMyT5qkc1rnPGnAgNY0fH6zPiSE9DvoJR4Vjye34E/1pjf4Iqx5ohi3GsEW5nmvh7ihUT+Nf9dH/nFHweMh7vXmll7iS2c4XI6lg5i1vrXTC9zG8jLvFLfE4y0ucD/D4yUuBbYUWpaXto3T21p6cdcKLXpis+ER7fUQ7+xN7UdnT/Do3txhvMQ96TUI72Vux+/08pZxvo5h35XOdXbaO72bM2+caTq5Heua78OT+HlnL/G/qsf1/7QIA3QYIaT/QIHdR1HCNGsXfrB0pQ4hqc86XCkvBX49GgMP6yBCSL+BJnFCUoYVGPjrED57cDcd0Ajph1BgkxRBmqSdXtaeLdrc3n2Fw3Nw/aFsfMq5xAnpd9AkTgghhKQA1LAJIYSQFIAC2wep3RNCCCG9AQpsQgghJAWgwCaEEEJSAApsQgghJAWgwE4B5CQoxgIfzkU+5GxlZtjbKO4Fq3D1bWR+9+J8frwdp19/X28t2DRHh1vo+rLjJeTokPAsQfGO9/DoMn0YlcvYbT33fex+XAfHFWddfw/fqjDmcHX9L6rWqjDSy5Hr6QcpL3Vd0OWAAzCnA+9EqadTq2Rdiv4fl9eZdTAI6yrt556uvKxDuwYFdm9HVNyFM+BY99qc/tNnzepAxNowk15P24149r5RGH1fJhbt1mEJZxDmqGeOwIE2HRRn1Dz4oc26/tvrvjeW3aGOqw62q+OYkVPwRu3AEBcpnWcZ2Kzq6ijMeUEHJYEVy4xnPvt75zTVXYMCu7eTl42MeC7aQfopuoNnzSefKixBThZw6gin2O0TmCsM9sIpk+uWyg6he72E3gYnTvGhN0zaouYEn1jvWLjDizQXFqPFszCHxL04h714hzTpzPOu7SGwFv+Igox3IdZjf1aZFc+pbbdiY6Wxb2jvZchP14fOhUekqWtVNvYXHsYkcwES18IkkdOtevdTmlCbVSDiFuHb6pFXUiA6NO77u44n3a4FTXQ+m8+UQd7nehZNceZJzHkmNUpno+aJu1NZSZP4nIF4duFgeEvQlZ/eeBXy3dyLwZhpM+qKIx9U+RUAnerKFWzachbZu+OtvRhpgyuv3Kj3CzdvfqTy0O+gytCFZwGbiMg0TUP9mibMNOOJoS7IPJ3ZXIEtWG6Vi7sueMrDKjNZR5YDx5qQP0PELcJ3olTVJ/f93SBSPQuQZ9Hey9nuhG1rPM92l0eU/4c3z7zlIU3iK65g131pWKGDLFzvFq4OeNsFO/3B/x8ilvIWfD9rCEYvG6RDYocadi9FVgQ5NqcqfnoBluqxusBjJ6LiFAkBYZoRqw4C+csMU5bRk6xAbZvxh/KaGoOQMaNM/TnVvdtCGFNijzflVIgGttKMVzwHBVjoSncu5qlOhjy/GafE+xWZpnmfdCtyC5BZcyt2htKQXyIFv7zfZ5nPGMipWI78Ztv0ag8/mJjPDJNu2WBMOWzf68kTiV+eTa0SDYL1bJFnWaWOshZxi+fawyKxlZW/6Vg2RqUYKhoY69kO03bdUnksykuNOYprl4VvjOKObPhUnTca4TElRv23fTii4VMeppYnwlTDbl7Tqbz9EHmiOp7yPm8dD1YXVCdDnJflMka8r1nHp1aJzoB5r6xnuaWOoStRByc2oWrNAbSKcFmf1P1T4jGG71PPAuaZ33sZ7Y787+oAJ7K8nc+W76dPSfz/H/K8sw6LLZYOvPlunmeauJ/tTn+y/x8U2L0Us3KrRtbxBwlcEUQl3Oi4tnFfPVrTsxG35ZRFD9dKS+VhnEI2crTQbCy716Htb0DdsXZkZDl7zrKjYFoEVqJe/AGGjtB/vmjpFnlRo3vsrQc3x9DABiR3mo9AkNq+2UB50i1Nzs4evydPFBHzbC0myV66df8GkTchZEyc7RgrTEPeLLuBihvLSpGPA9gSsV6JtDwkhUYxikVHzP/aOGI2otpHw+5YBhWqAcqjWzjrgreOB3i2/E/ra7x1vG6p8x299UzkhcgbQxiFsD/uZdHNeubzXn5MXSAF3XpHu+EkyP9DdBY8x3FBdCRmup7tJbn/DwrsPovUnEytRGxhzVnxJA2ZeXrX0o6MzTZvm4RQ7zDfyc6J3RFJdrptpCa6MyS1f+PZsXiCSkyriLG5Tczh0XlWNBJDldXBcb/LNCgEgOj9Q2gvxvmgWma8EM/fJs2wQgOqjEFz6WFiL49ukjXSoSX7P7v12F47H1XnxCGkpWnYujf88FVi6H49832vrhL1/6E1XdiWyOQ60ybv/0GB3UdRZhzR27NMVxHMPfGjHS0N8nctHtVjOIZGFMkUG57kp9uNadmQmt1F0XAFFdpyHNUYy7Lvj+69b+aZxHmv3pxmPUvjlPmZLRqvJAptZa4EdspGaVWyOwtdo2vl0U2az6jy6tazVV7nOiwKEUzIiaIn65kvUf4fStPV4aLNGFqSRKGdxP8HBXZfRjcg5tiKW1PdgMZmxGXsS3124/Fkv3hWa8yiMi/spGFHwTfdAViyPg5LbobQEutnSm1NOKd3VZ7o/XC48qxmLxqscbDoNJ5t0ntxoKEJrQ4fANVhcjjXmGUAOfxQea9hgYj1m+e4lEcXiFYennfvMrqOuzzZY6gLnXF05IS2HbuGPQvlL8tlZ7eivFAHdYGw9SxeeebhXHO7w6RtdPqt/32M/w/UnMFFvdttVFy5mKSFv9EZM/YN4vD/iAEK7FTFMpvJxiBN9Ozkvv3Rf91WwynFuKYMmcc6a6p1S+XYi3lNjCZgx33zsoRGbPV2V6JGOpuYTkKrstEQg4YdJN2JwWOKF8+WjiZBfQYay3YpJzTTJDez+UBnrSpinkntwHCksZ/vKA+PifQZ5ZwT1NRov5camjDTYDYqQqPaIh37VP0xvHxtjU7ea1g8zHE5q3xiaZQ2HMUJ+Zs5UoiSeOH/XoHKw/PusZmAzf+c2IRwuejwhg707EiINO2XDpVm3EVNqE2Whh2knnU5z4QQ1vFKgSed0+S+Wccby9Y7TNrSIdVplYjy/3DEbWyGA1pQr3kphNV9qpNgmt7N95Lmbuk0aMQtHepsi2Gc/h8xwM+6fOgNn3X1RmQFD/sZDYlIwvPM57Ou5OD3WZfU+FYgv2U75j71og5LZaSACP8pJeml+H3WlST4WRchpFcza/VWVFf3JWFNSM9BDduH/qhhK00w4pizMYlJ3azU07CDvFcitaWkaNjzzcGDL+HAumRNTyrnEj8Pc1gvtD250z7GH6k9+4w5qwk7kIIadpD36sMWM6VhfwSzBUhmPZVziZeO0wcnbuqWhk2B7UN/FNiEEEJ6JzSJE0IIISkABbYP1K4JIYT0FiiwCSGEkBSAApsQQghJASiwCSGEkBSAAjsq63ClfDeu6iNCCCGkJ6DAjsoKXHMoG5/+4yZE/f6NEEIISRAU2AEYUH07rvuoAJ/NjWGubUIIISSOUGAH5Jo3DgDTH6ZpnBBCSI9AgR2UD/dgYGsuPp+mjwkhhJAkQoEdmA3AR8DVm2gWJ4QQknwosGNgQEs7rmbm6SNCCCEkeVBgx8DnmWm4pqVBHxFCCCHJgwI7MEuAG0WGnd+gjx0sWY/q6mpUP7dYBxBCCCHxhQI7KMMLcSUjhAGH9bGTDUdxQv5mjsQsFUAIIYTEFwrsgFy9twA49HKEDAvhQrv4aTmDfUYAIYQQElcosAPw+dx38OmNB3BtdWdz+KzVW1FdvQL5Ldsx96kXdSghhBASXwaMGjUq6oybY8eO7bG1oXvy2QZyLvFpGLB6Dns3hBBCegzKoKiswEAKa0IIIT0M5RAhhBCSAlBgE0IIISkABTYhhBCSAlBgE0IIISkABTYhhBCSAlBgB2XZG3hmz3t6exvFRUbw1Coz7D18q4IreZEUpeglfEvW46q1OiBJDN+ET8tP47LeroRZvtb4j9n/uUjI62L5D159zH7u5cfW6VBCei8U2IFYi0dLcnFq2634QaHc7sCuGuNM3VIjbGfIOI6VWBsZ0nfpv3UhhOtWj8YgsQ0MN/Vvgrjml8Yzrz8kpykkpPdDgR2EopEYKhqV+kp9TEhfo+YR/Ex2Rpeu1AG9B6NTbHeSCemvcKazIEhzeAmws/Be1OkgL1I7mtlcgZ+Vuacvzal4G0tnpOmjdtSuMRoed7iD0OZgjaZM05TDqGoutuJpPeh+fqRny5XHineUIbPmVtRPeQ/zcr3nBeqd1QmFtC5sVB2WtXh0zzS0HMxGvoi79eBmNEwsRX665/4uItO8EOuxP6tMp8v5bImR9vx0fdh2AFUPPYJGddDD7+WKu3N+58ORVn2tfH7NiAB1IWLcXcgz0fl01mVZd837vHVI4q2rdtwy3uVA5S5krirFGHXWHbeRr+Y5gau8BNIk/nh2+MmJpJl+VQEy1IE3Xon3vez0G+/kuEfHhTDvJ6ce/iRzFwb9coUOIaR3Qg3bB9lQqfFp1VDmYp4eqw48zicaiSLRkBpm9FtRdRDIX/YScsSpxrI7LFO6bGTMa2LScHJLsTRrl3HfmgPAjOX2OJ/Ps03GlBidDHl+ZygN+QvM9xKNrOgMmPf+YFtIXPsGpuqzMi/y5XNFeMaMUiUg5f15s+Jjzs2YUWaly/vsnIpSISB0ugorUIsCLPSYkXvkvaRAKMkWgtSMuwn5q8y4N2DXQ5txKt1Mq0iHFtZS8EWtC75xGzjzrOpgO8aIe8yyzqlYjvxmIfzNeD2Cz3dYR3QUls5oEoLPfLbMM+d4ssjfVcVoUWkT5dGWi5mO8phaVYqhzndyCutomFq/qNutOsjJ1CohrB3v5Ux/3VIjLfPUf1UI9mXhhTUhqQQFtg9mQyobKaOHrxudoEJVNDgbHQ1E4756tKZn42Z93G2ktmKmpWYvGtrSkJlnHAZ6ttDgzAas7oh4x6yRupFfiY3Od6w8jFPIRo7VSAsNb6s+L9JQY2lyccKRLu+zG8vudWi7G1B3rB0ZWabmqemB98qZNUkIhPV22io3K4ExaZk+ls9WnapSFFcUY4xIo60B+xM9boHjncOWde40l4APhhB0RbnK2mAJ+Mp7O3ViTm0ztf3w5ZExcbaroxgXRIdkptSgI/4XdScpt1jkd6mybmxx/B8ISUUosBOKNNlprVxulnkvcQwdYTak0Z996ohTeN3r0n6kSdG612nS7BEcHRGpbVrpei+sKbkn3uvmrDSl5dpxu021CtGJ2qJM7kJjDdrpEwSK2wfZ8dwZsi1EsTq2XTzbdUGnNF0UYKl+9qPOTkbCEZ0kaY2YkY3ayhg0e0J6KRTYCUSZ7OS4pamZRzDtxROzce3Os+VQgDH+p+8tFJqKPtcztKOlQf6uxaN6HNJIl2H+DUqi38tlztabS4uW5uWJ9dgphPa8He7hiWhEjTsKptlbvvNFIfxjEdp2J1CyBDlZejcQUtPVzxZ1cGhJEoW2GkoAdoYZQiAkFaHATjTNZ3TP3hhH82q555rb42IyVOOU6R5P9ijP9qWtCef0rhyHjFkTLSzH1upqVL9cjlk6qCuoZ7fVo84ygzs0PtEgLwznrOVHd98rAtL0nuH0IeiEHrcWWnZd2fqwY++R6kL0uGMhhJY2vRsVbeKeUWoLu2XSES+E/V0xL9ecwUW9221UXPawgNEZM/YNjDoPac5XZnxzPDsG4lSHCYkXFNjdQjTC2tQnGwvTbGlqL3VbhVabW6rCpBkz81hnLbdRN96myTCmiSvS7fsMxyDbmSjIsyPRWLZLOUiZcc9sPpBcDdtKt8jXLKdX8UrUSIcqoaWp86uy0RCDhp3Q95Kmd6XJ6bSpzdTqZD0RnQNr3FponTVSCLs13Yh1wTfuaHiGRqQ5vdnhIxClDktzepW0CJj3K+c3r7d2JOy4jc1wQAs8dm86farhHNOkb763NHdLBzgjbul8aVtb5DsbFiZz3Nr6P8Ty/9qzF6K/AqQNE08npOfhZ12pivzMp6jJ/YlMH0A20srzPYYxXpLC+H3WlST8Puta/Fw15mfWYt3Dq7FPhxHSU1DDJoQQL0vWo7qawpr0Lqhh90aks4yPR7maHOJsaepp2AHeawuW9z4NO0h58JOhrqE07AJc1YfX/jp505PKucQ/HacPTmzmxCmk10OBTQghhKQANIkTQgghKQAFNiGEEJICUGATQgghKQAFNiGEEJICUGATQgghKQAFdiKRnwNZszz5zEwlJ0GxrnMuXRgP3LNNxbrwg0K9B+diVphlGus0l4QQ0k0osBNJlPV8DYRA1WsjG4szmEsVxgc1X3bIXjO4L3wvLFfc6lLHgxBCUhgK7J6maCSGwrNoR9wwVlZyLTdJuofZCePUqYSQJMOJU6KiFxKw1h+WyzM6Fz/QCzvoo7CzXqmZsrKx33WfRprD5RKA4c51GyNtENp75wUX3OlGm3ORDYFKl3PJA/u95XzfC7Ee+7PKrBWSpIUg+HKPkfLMXrTBSotOh4y/ZsTbYde/hrQgWALUpzxkXFMOo6q52IrHXV7+ZS01e/N9w5WzmgfdkT5nnnQ/zwgh/R1q2FFQy1Y22yblH7gEq2zgjRWIjHPGWsNB1vu1ViJSQtFciShOY6PW2LkhuKzVrRzj0NJUbqdbbE5hLe9XqzLpc2FM+nJVp5nN+n61alIsq0dFyjO5dvJmtaKWsfSkEL5aWEvBJleOkvfsDBkC07hfbJawDlAeuaXG1KfyvEi3c+lI/7KGtaa0fH4nRGfAWDFN36vyxO2P4MwzubLUGJHP3V1WlRDSf6DADkLutPDCqGg28hxL+FnLP06JLnRN4SMbdkOT0w19PEytptlWCCy5fKQUeCpujwCKtA731AVyHeH1/mPpQqu1NMzKw+I52cgJ4iwXNc9WYqPoIEAI0uKKYseSlAEIUh7SkmDmcbh0RyprX0RHoShXdCI22/mr1mBOQ94sx1i7I88a99WjNT0bN6sjQgiJDgV2FKRgVYvfaw3Y5eyUl40Mx/rKcgtrsu2F1C2tcK29HMQq4E8aMvP0rh9B8kx0OLYczEa+1Fhj6cB0szx8yzoAF8+aHQVCCIk/FNgBME2hponV1ZBLjc3Ujs0tHlpywpHmZ51eodEOLemu0G5HS4PejUa0PJPm5Yn12CmE9rwdMZqNu1kevmUdhaEjnNcaDn+EEBIvKLBjIoSWNr0rkSZVa7w1Qeh1eaufW6wDEkDNGVzUu5Jzze0Oc/laPOqztKREfTrWVo+6IJ+jRc0zPW4ttOy6svXKCuC91p0+B3EtD09Z+7IBdcdEmhzj4VhWivz0EPZb5vkAFJZjqyzrl8sxSwcRQogJBbYv0onJNq8+s6dMOSXZ3sErsVFrYvY1tqZqOZYpgWeaWnvDBCTSk9pOr3ROk45a5lhxoxaUhmm5GC1rjLFwF7ml1v3zshxe3VHxyzPt4W2NW2/ArhrpGObWdN3pE5vlqOdfHv5EK2s7z6SXt0yT3DfTJc3pVdIiYN6vnPbcPgNR2bMXQu4DacNEbSGEEDf8rIvEjPp8SXpap4TpP7VY/Fw15mfWYt3Dq7FPhxFCiIQaNiG9AT30QWFNCIkENewUxDtBh5t21K6J7/SmXiJr2NqkrY864ZrghBBCSCxQYBNCCCEpAE3ihBBCSArQ6wU2tWtCCCGEGjYhhBCSElBgE0IIISkABTYhhBCSAqSMwH58+mt4frg+IIQQQvoZKSOwXzhWi5y7tqFiiA4ghBBC+hGpYxK/9DT+5+/PY/pdP0ShDiKEEEL6C6k1hv3hNhxCPhbSNE4IIaSfkWJOZ3ux+8zHyB0Zj+UTCSGEkNQhxQQ2sKf9PJA2imZxQggh/YqUE9i4dAEfDxmGPH1ICCGE9AdST2ALYX2DENoN+pAQQgjpD6ScwC5Muwlofx979DEhhBDSH0gxgT0bc0begNCZDfqYEEII6R+klsAeXoLpqMWWD/UxIYQQ0k9IHYE95If4j7tuwqHfP01zOCGEkH5Hygjsxyfmo/H3JSi7pAMIIYSQfsSAUaNGfa73IzJ27FicPHlSHxFCCCEk2aSclzghhBDSHwmkYRNCCCGkZ6GGTQghhKQAFNiEEEJICkCBTQghhKQAMQnsJeUteKf8ij4ihBBCSLKISWBvWD0ETXedxe7HdQAhhBBCkkKMJvFBmLPuRmTPb8c6HUIIIYSQxBP7GPbuwdh1ohXFNI0TQgghSaNLTmcrjmYgbcJfsEQfE0IIISSxdElgIzQQ7elXkKcPCSGEEJJYuiawd1+LJnyCkXP0MSGEEEISStcE9pzPkI3rcWa3PiaEEEJIQumawM69grS2gWjQh4QQQghJLF0S2Osmt6L9+BewQR8TQgghJLHELrDndKB4XAZ2rR6oAwghhBCSaGIU2Jexe8VHaNqehhU6hBBCCCGJJyaBvaT8ErJ/PwJzXtABhBBCCEkKA0aNGvW53ieEEEJIL6VrXuKEEEIISSoU2IQQQkgKQIFNCCGE9HqA/w8VBT+LrvZt3QAAAABJRU5ErkJggg==;" vertex="1" parent="WIyWlLk6GJQsqaUBKTNV-1">
          <mxGeometry x="680" y="170" width="392" height="168.91" as="geometry" />
        </mxCell>
        <mxCell id="KoPDg6AwPJM6sa3NV6Al-5" value="" style="shape=image;verticalLabelPosition=bottom;labelBackgroundColor=default;verticalAlign=top;aspect=fixed;imageAspect=0;image=data:image/png,iVBORw0KGgoAAAANSUhEUgAAAhIAAABXCAYAAABRN6xJAAAAAXNSR0IArs4c6QAAAARnQU1BAACxjwv8YQUAAAAJcEhZcwAADsMAAA7DAcdvqGQAACYJSURBVHhe7Z0PcFVVnue/PdjSQEhiOgkJfyTYD0Qa7aQlzSQOPRgII6xYpRVJt667W9NNoKm23a21pDKxZLEmk8JyalexMiHMWFvTi5qYxa3BDY4hkSpWMgw6wTaCbZ4daARCko5JeODEhuk9v3PPvffcm/feve9P/vL7VN16795z77nn373nd36/3z3nG7fffvsfwDAMwzAMEwd/pH4ZhmEYhmFihgUJhmEYhmHihgUJhmEYhmHihgUJhmEYhmHihgUJhmEYhmHihgUJhmEYhmHiZkZaWtp/U/8nIalYVZWP7/9wIZb9MB1/CPZhIKSCiNx5WPvUSqyU4d/E8LFB6MHRmYmlP1+F4tIw8YZD3isL/+rzHjmPrcbahyhdCzF/Vj/Ofn5DhUwmqHwDmOPIPx3Lxb+FzWeMZTaWxFQfkyjdE4ZRBnf8/gIu9qhDU6WuJw3hynCSUJCHB8tm4uI/X8XX6lAsmO+r1NAkzFssxFQOHv2LB2NXZmPbzlI2fBcbNv5R3G0lHD41EpSx72JprvhLL/CqPOQYAT6hCluNB9W2dsNMddyLYXxQfQJvV59B2PK8dBlHKfzVszEIECYj6HpFXNt8FXf+ucpbEul5jdJ9Ah90qwOxQg/Ez+chRe06ofpYjVUFajcuKI67kHIyiK5L6pBkGJ+enINVYe89tmU2dox9uuVLxXe7dhG1rhOMW5HzWD7uHDiDDzrUAckY17VHviYtcb3jpjbyfSXeoymbEn2vxAi1EdEn2Pc03m3j0248+hcPJqzMJiExmDau4orZ4Qx95b/jlg8ldVinZMcqO1fkTp5OqOOsSNMnrs50+pOyIYA7cRYfvDuijtiE3v0EHwzkYVWkzmuqltlNWtf0sl615DI+eG1YHbCZtnXNxI4amDmFzbElJWsOQkMh8avaX246FojeZcoowCagzCYjnjNbkhpkbWF42bCn2bsAaTS1CmfwdpiXmAFJoGK0lKZ2h87i6CuXXQ2JNBqLMPRqhBcaCSt/PgufVp+NS7KMCEnLm+apHUK8jK17uNLdHT6PlP/l/adw1N1hu+K2ylLmJS+MNG7cG1SeS9QhjZAQ1OQ9rLIYwEIhwMlR1agy9ShPYkzKNFpdU5oy8MWrX2G5mX93uqPWR4K44rbKU+F8Duz7Rnw+9PYQZ12HPOM2yjPt/RP44i6zXYTwa0e92udEfFaTXdce+TLuQfWt2icR9rmPjHyvuJ4Du87ijdt1nYVZpmZZngE2mefpefKuD3d70d+hMizzvN1u3PUStlzV/amN3fcVPvgsE6tU/O42HD/Rn01K9yoE8WlmvlUnfvoGwri2H6FlwKciPmzIQ27fV1iwyc53tDIj3OF22ijdzvdc+Pfx6PNMnHHrdZ0MIrVTr3ZGOK8dXddGHNa7Vrte5mlZv1V/5rNkl2ukdEXG00fi68/78FnwOubfMYjjf/1rnJ2VjryvP8fbtb/xYb9JxfKHshBqj3xuyoZFmHv0E/xT8wV8dqwff/jBcixPd/sUzMT8H6ZhpCOCDWtuCvIKvon+mHwkPKCHdks6ul/tMNJGZaDdI+exVbjnK/FCF+Ug0/2nd+OeUekW+bt7ITKv9biOi4oq+QpH5bUi7tA38f1N6YaPR+gqzqpjy7JFZYsy76R9dd/Qx6qcvpeD620ncLSR9i/Y8cuyWIi8H87CBZn2K0gtXYpM3Y5XkIvvZw+jsy2KjSx0Hd/8XgDZSbTTRa9rquM8LCsYwa/ECPhfjrnS7VEfiSHq4yeZqrxc5UmIl/SGtb8XDyKlS6Rn1gIUKxtjiJ4PcWx40UKkBk/h3f95Tu5/9rH5UMdf1/LZixr3Lfj2D3KQJ9qYGT686A7cs+SKfU5uJu4pGsFvGqOUU7Lr2iNfxkvubmR+bObJaAurAlq6oyHqY+0Prqr6MJ6FzEtn8O7/uSYCE4l7BBcpnbJtme2Q0m2+d8zyNp8tuncAd1ht2KM+XO3IaAsLLNv8rd/JRt7sYTudjveayNd/Wo5UM19UtkshhJQu/JbSJkbyy8R956t3M4WvXDs3Rr+xSER/Nindywpvt/J8UfQRKwv82eDp2vm4iN98YyG+3T+Mud+9BZc6YT/bHmUWrkyX3X4dZ+W9R/cb4d/HEfqXKM994r4FRmdNmnqjnYq0W/F6tTN3G7+CzB/djfnWO14JEQNm/0Rt2G4Hsp19+5osowwSIjKEoEB9u3r2yQw6X3/f+MhvzF9tpGSmINTv42H3Sejds5oUOIJLn4XEPRKzByeDnPvzgFH+AyapWOhQFY+g6/3LSFmWHmYUFo5hp5q5Y0BIinMwN4nmnp5mU7oexhfdot5M1aGA1IkY8DJPjeDKgPO6RPGuaxq9mVK3M93R6yMZpGDB3eHzmnPXPFGe9mgg9O559KRlItdXfY19XZOGwhyN9JwRo7qMWXY7zBH/PU2Rya/rqAhB9s60y/jUGkGJ5+d/n0VoSYY9CooC1Qe6qRwJox1ZeU4wbj/Yz1aE91XY+hAv9/vmiZHjJasdkdnog+7I7c4BqfzTQrhgChmyHaUgTc8UjRzNtpb0dhb52ZRoeQ593I9QmtYGo0D9CdFz5ioW3J+LtH5d8PEqMyNcfzaTSWLPfXRoUJUj6iucadkkYjuT5h/9WvJ1Con0phq76hkIZ8rUyTWFiDDaBv99mYGHIEGSzWo8SOqsNDEKIKeYJeImhfnJc4ahkabuiKmrqCYrufSQzBMSpZ1up8rdG1InWdeGVacmwmV8oan+yClIV3uZD68Xof4kC3WTtq5FZy9ekqB2LdOmO9rNxNwMUV+b7HTHWl9jW9f0EtYFlbN4W3sxSKHRB0mvay9i8bNyQWmFJRjMRO4yMbj5TOuAEog7GUSrj1Bf5I4jKpcoT5rQUUD5dz7nUxoh+ISWzMEQCUoyrzZxl1lCJP7cR0O+gz0HcxGgwYHqj8206e9S+cx7PQPi+jtFX+54bhQ9r53Cr2HH78eR1EOQMDy3jwppR9plq8UNhkhSOuF4OCIzgiFxviUpjSIVq4SQgpO2I6a815SAbE5Gmq3NV5mIiia7IGk0rGvj8xqOF/ki9kFytU+TvK7NL4BkuuYIIdHptS/bvAo3ttH21HBMeF33XVX/opNsTaMn7hErvRzVXy+MPJmCfP5op+EE4h5rnFofo7Pyh/EulYM4yrcYuIzVSHy8MQQF+oJCf6ZsbUr8ZZY48T73Xvh9B0eEtE+OdIlNaSB8PfN0vRo8jRYU1BdbFKfPr1J8mzbsl0wIQ75br6Hyx5K7HAlJ2ZDn+GrDkjjFiNV0FJpo5AjNUu8YnaCVskuDuDAk0vpYJAHJB5rEmPNYGEm3R4RHVKMZqujIAlp0ZEPT1d9hMR7YZI8G4q3rqPWRZJwPoqFWzNkU/XNAZ/pcJFTXHnF7IeOemLqOmC+pdp+H5daXImFU2BEx1dnaC1QX4BOKWyFHxPOwMKmf9Cn1dGGuXf+jzDAC67l0tXE6VwhMeufhx5lx0mBqI2PSZHuVmes9SPcYpRm2zT+GUG/898bfcx8v0vzj6hd9Q208LdqXVh7hJjR4ar4s8hjl826XdigSviakylh9h3JQmYk7SqM4PYajZ1A5yNwpJ2eiLfNiEP/yETmNjGCYHHPW3mGEFYyg+ySQaTocFeThwZ/QdVmiOdyKzALnxCHUMDb8SFxbkC5CUzBfxh/rxFTh+frzYcNJq5TiJKeXz3G9YJaK+wYG/rlfOlgWy3BjsyeeEi8BNdHJ/NuAWxfkOMK//nxEOisZE2mRY9ZZDCyY7SzX0FX0z8rGqgdV2bjyFfr4ClIfuktNpqLd24/jac+/jXbAdOPHSS8mPOpavPCjOUZFr48EsdqZUZYOJzYBOT1KRytqa+Y537vucLpypk9siwwHu2TUdaS4Taesb52PUo/KkdJ21ApD0utaETFf5NRoOIgZ7Vd3lvRCPHu/d75P5GbVRyJxm4g4HO8s850zurydDpLR62NUOxrVzlxtvPkivrVUPctCKHO0AbVZkyGRs6XlZEhEcCCMi+jPZnQnUYU8Jt7TI4OONOb+abjysu/X81H0MnO8B8kZ9NV+pK6A3Ra0eqSPBD4YzLKdLT36Fz/PfdyQQ3LwOpZtMSdU1OP2amfuNm5s9sRY4cLtd4rubPm16J8vqmfU6ENIG2tO0kVbltQiH38/wrtD4fn5JzM9cX8C5Cb8Z1LMlIRemJuASJ+uTa26Jr8t9+esxrEFn03j9kp1eN9XzufVo14ZZryI+asNZnoQejcoHWrCqb+kCjAjukcxM4WQnu7hTXFTr65nIs36Nl4hv2gQbTrZpplJRDinWfn1ygQ7ljIMwRqJmxoywbgnYqFjGfiCRznTjHAj+Sla13Ik7rSF25PpTFeM+rMnGBL4mCiIYcYDFiQYhmEYhokbNm0wDMMwDBM331i+fDlrJBhmGvFXNdXy9y8qq+QvwzDMWMIaCYZhGIZh4oZ9JBhmmvE/Xvrv8vc/P/Vf5C/DMMxYwhoJhmEYhmHixr8gkfVf8Xfb/x6vP/hjY38URdj5uAinc6KepxNAzVsvYt8OtTtN2bq7H+dqx+4b94L6s/hF9Va150Hpa/hF21k8J7cjSOoswMwYMILWfxzGC2qPYRhmspE0jcR9f/IfkY+P8Erdf8CPaXv7dRUymfEQZEofxz+0PYntajcutg3j2T++FQ07POY9Hy9aHsPLJXl4vuY4BtUhZjIzE2/809cob7wKn6IiwzDMuOJfkOj7a/wkioCwJH02rp07jvfVPkOI0eQjgwgeTMUz6gjDxMr+XZlo6P8dfrE7+nz3DMMwE4EvZ8t//+Df498tNP5f6/wb/OT/tRs7FmTW+BmWnQsXFg3SCGxHRss7QNkDWCqPnUNjyV7Uyf+CHU+irWyx2gG6mp7Gtlq1I1hXvQtVRXPVnjvciH+1ORvcUAeqHz6AVvF3e/2L2BIwDuuE2uvwUFUe9rWZ6dG5ghM1u1HZYly/qa8OL+Fx6/7utJFJ49msuVjs0EZsxca3ngRO96KwSCQg2IBDKMdm8be7KQ+/VNeTuYKOGQzjZM09OCzua0BxVKFQm+VusL0aL1ftF+V1BM+V9qL+4cfUbIV78ETbRvQ7rheQiaMyG8dK1sM5IaArbpG+5yt2qp1EUPmuPYzMynIYi/AFcchxf0qrGSbQ722l90OsNM8ZOq7lE8ip/hUqisxpoLUyozLJ78XJrGKRL3G8qRNLy4qR7ro+EhTvFuzFsawqq070uhpVZlq8xrWd+LKoWKRZ5LcJ2Fxm1LuZN2e63WWiWHcVHz9zA4f/LIxQWrIbbz5dCJx4AY/uPsrOlgzDjCu+NBL/623DXPF/v1AHLH6MGukT8TPki7509sqfKR+JOuzMUqf4YGnZfRioeRolJXU4MbQYm6rNHnQ99uWfEccpTGxN58S5mqmh9HE8VTQgBA8VLjankLFRdFxmmIgbBXhKxV1XoY4NGQKAef1DVUERegTbaL+mAyEp2JjhhhBhklK0HVVZ78uw6vYrWCrSs06F0SqFJXddQ/CjcCaNVBSuEJ09mRcC5VjTV4369mEsyd8jQ6lj2ZwlOiMyQYitXshmhZW2P0NBvei0+kRHpMIPUZKThDPuatH5lvv3v/BE5LuShBoz3QFsrjfyTBTU34tOlafnSxrQLcrmCYfZSZwvhSIVnlaMUjNcCBqlorM3y0SW2Y7X7CWAA8XIbKF7ijSUkUBC169EQakK9yC9qErWkxG3qCtxPzPunOpy0c7MdIsyQzG2aGWWXrRSpFkcHxLpJyFP1vu9Rn0KIaeiqFcID2a6s7H5LS3dJq3fQufQIO7dpvYZhmEmCQn6SLyOSukT8Tc4dcXQVkj/iLrt2NOnTvFBV5PZQQdx5PQVpGTlyeOyQ684ov4Las+gCxlY7Hj5L0ZBBB+H1qq9WsfvjjsJkIZDpa/1aBChtAxNi3Ed2Wmz0Ruhk+9uMUfCQRwjTYLFHpSK0akdDvSIfFAntJLyKTqwNQExak2KlsDNHqx0xL1fjOiDSF9xf9LW5O9usjUjHadE4WQtsuLuqNBH4jvRKYJvW+AUYuzrXeGivH6plWPP0U4MpmXDWmZ/6DhalJA52N4wesTvRbDB0PgI3HH3VK3XtD370XF6GOlZljpJXHvYCtfrlSjID4g82fnuqTocQcCZgfP9QPb8MOaNtl14dNMmqY1gGIYZb5LmbDlWkAmhrc3cXOaGlgN4SGopVPhbukZAIJ0l7et1E0gyCJ0+Ic0kEkqLbpJZJwQJ9Td2htHfpf6OJ6WLcJsc9ZtfdYiN1PBjid7ZkwlCu7dt2jEJolPTOHVU5Fmdu2Fe0NJdWYx0FTLmkNlFS7dtpvBiK3KygCVlWrp1046Lrr7ZSM26rvYYhmEmB5NakCD/hy0B3bTwDkb1r7V7VdjTaOwrQJUlTKzHvsoCoL3OCifzw7jRegt61d/YSUWmQ2IKIFNf9W9MIRu9qaZXmw8/grgZ6oVceJQ6YyG0kO+Bed9YTDbSJAPbHDR+X6XswRNCaEG7YfagjUwfsaDn2dhc/iyKpVnXMNx3i9pjGIaZHEx6jQSGBizhYXt9OAdIm66+0YLCpQuqN5L+FG6NRBDn+sQLOn+92nfRcll0cpFNJ9ERgsTQNWTHPKA3VPZOG/xGLDFV8y3n8aUQLKSZQ4b9avTI3Rrl0yg98gh3FC3voYvs+JrfQli27kVzczOaX/mpOhAPogMWgsPg6fc0IUXTxOw4EkYj4UHfeRWXyPeOcdRICL68oDQjot62+NZIGGaQJWV+5vO4gUWZQO/FGWpfg5wtRX28uWutOsAwDDN++BAkTIdK48sN06Hy7/6kSIWPHa1V76MrrQBVyjSxqa/DoZEgjYVptjBMFwNoVF9lkH9FIzlAmmaPygx8EkYjUVfxDroCD1hx/IPl6EkcwTbddNK2CzU+nfPIpt12ZjYC62L//p9U9of6ilFhqcp7ccjSCuzEL5uCljq8IuuwcwRcu95wYpTXViGzpQHdKoggwUOq0KXq3zzP7Mj24/DDhoOlrWoPM9nV/o/wOf1mLkKsXZetxi/HbeaXJkTLYzhGjpCVKry0Fydj0Eh0vGk4rhpxi3yfHi+NxE60kPOlma/KbHTFoJHoqbrHcLCU6VZbOGfLdf+KlWnp+HCf2mcYhpkk8FobYwrNSngZOHg71k2rDmAtdr/xDAr7D2LTz/9WHfPC+ESSvpywP5tk/PJC7W+xsW8B7t4VRiPhgj//ZBhmPJn8po0pzUysOyjG/Y9MnymO1+56E83NsQoRTCLQfCTlmd/Gyz6ECIZhmPGGNRLjQPiJqW42JqdGwjkZlBv3RGATAWm1RvBhuImoIsAaCYZhxpNvLF++nAUJhplG/FVNtfz9i8oq+cswDDOWsGmDYRiGYZi48TRtPPLIIzh48KDaYxiGYRiGsWGNBMMwDMMwccOCBMMwDMMwccOCBMMwDMMwcTO1BAm5CJe2jLgHjpkv6yNMgz3h3MDrjb9F61gtDy0XlPIzBbOBNfMlbV5TZTMTz7qr+Lgx9tlTGYZhksW01ki0Vu1ObLGuHU+OXlFUg1YmdU6pHTsv1F5Acf+8STPzJU3ZHM/CU8wE0ToHh/t/h2drR9QBhmGY8YVNGxPJtmGUfycdDTf1RFVMojyzYwGOZ14eO60WwzBMFCb/55+kFShbrHYIWlZ8L+rUHpkvqqxVPZ1hJvKcrPdRUnFEHTFZj31t2oqiwXeMc8iEUlmAFHXYxoi/y3FPDfN6BFDz1nZktDyNjvwXsUUqLa7gRM1uVFqzJJJJ4wKyW93rcOzBE233or89G4VFqRhsb0DXinIUpmmzLJK5Qi66pQg24PmKnWpHsOMInivTNSW0NPh6dIh/cibHrMP2+TKubBxT4SajzrOg9Nkrig7qC28lhJHvzpperDHzNnQc9foS5q580fLb1iyZFFbai3qxv8W83lEuznTbYTTj5pPA6V5R3iJucfwQyuXKo474I6Kurz2MzEozfru8DSLd20ddqxlBC81l5N11bSKE0nPrZuAvt8xBMmqDYRjGL5NbI0EdelmG6ICfliaKkpoOhFSQRAgZcsVPCpMmjAxsiWKKcLO9/i50qGtLSoxVQPfR8twtB/AQHWs6JzqzDlRb5xhCimkyaQwCofY6FSY2l6BCq4Zu6jPCG4NzsfpRzU8j6mqOARRSJ94URHpRuZxW+lAwFUvXkiVcdD6io/xSdHJkgni+pAHdgXJ7hU4SDMqyRUekwmuSuQomdWrGqp3mvb8sqsITcS2zHo4ANkuhhuKuxkkUY4u18qjId/6H6r5ikyugunw/0opRYV5P+Q5sxEa1WmtBvRBSzGtVmdnpTkXhCiGEyGvKsaavWpp2luT79RGhVUs3ol+WuUj3UABrtBVTo987Wl3TtUKI6BPCg7zWWJl11GqsxL6ZCKZ9hRK/jZ9hGCZJTGpBYvujoptoP6CN4p1sz1+MriZbA2EsOx7Aep9LfddV6NqLI+gQgkHuAn0knyDBd/BQlbEWdt0pIZRkzbOFnMANpA7NcCyLbiNGpG+qUacYlbdoo+Kc6o1Y4jhmLCuevuJ+ufR0waPFosz2js36EKX3YymOo9HSQKgltH13uF7QSNwcye9Hx+lhpGeZ9SHyqY/Eaz9EN7KR46hr7fqW99A1lIpMpW7qqNA1BDvRKarltgV2h9zdYmo+gjgWh4alu8nUILjT7XXvyHVNwtPKQBCHrHzvF/ew69rJLegduobsJDZfhmEYP0xhH4kAFmcZo37rywzdTOEHMptY15omiOTRdUrTUNTuRcnDB9CqdrfO/1r9i4O+87a6fzxZmo10GvWbX3WILfKCV0kia5HVaRbU2/d9TjcVmAx1osMSoESn+7DL9KGlm0wX40a89y5dhNtIS6Nd6zRZ6czA+X4ge/4Ntc8wDDM+THlny64m0+xgbrofQhSk2YQ0Gva1ZKoYL/ZfvFX9iwOtcyVyFmSrf+MA+S1Yanq1hbPZJwslNJHPxmYanVv3bUC3cYY30twTkD4PZpoPjVddJ3xvPc9q0/1GLG5gUSbQe5GXGmcYZnyZ1IJEV98VpKxYrcwB67HP4QAZxJHTV7C0zP+8EqO5ggHTtrDjydEaia4BhKKYSpzpi5HgDAyn3YhNgyLoOdqJwbRilFo29j0oLUq1VPOX+oY11bfhT2E5ZZpYgkiE8EiQOUHc2/ZbCMda7H6jGc3Nb2J3iToUD6ID3kL5OqUJKUO9uKT+FtSH0UhEZRj9Vl0fGV+NRLz3luaZADb7ms/jOrLTZqN3HIVhhmEYYlILEq1VB3ACBaiSpof7MFDzjsOngJwepYOlZp6w532gLyeMY/ILi8ADRrg5MVXLATSTA2Sluq50ACfcL2FxzkvtsM9xTYblTJ/YYpn0qvVb6BwaxMbdMaqihcDwcs1x3FZmqrsN50dThd9TtVc6KRrmB3IAdI7cR4U36c6Y5ExpxCtNFoFy4x5WR7YTv1QOlpaqXWxOZ8ujeO/MVfE7BxnfMY74h5wWVbzKodTO12EpxJhmlTV9x/1rJESZHQtqcZf24uR4dbgJ3ZvMM4aDpbxWbWGdLbeNIDA0C22m7YxhGGac4NU/JxL6ZO8RoOHPUvGMOjQt2LoXzQ/n4OSLj2JXmzrmCX0KSYKP6bTI+CfSp8QMwzBjz5T3kZjS7EtFw+eDKJ82sxL+FHubm+MQIphEmGyzozIMc3PBGokJh0eTBpNTI0FfikT2aXBPPDUB0Fob24CXeSIqhmEmCBYkGIZhGIaJGzZtMAzDMAwTN54aCYZhGIZhmEiwRoJhGIZhmLhhQYJhGIZhmLhhQYJhGIZhmLhhQUKxdXc/zo3ZfA7GjJG+l9um9RmsmQxdS2UzDDN5oc9xG6+KJ55hbh7GR5CgVTatqatjhBbXck1N7SCRuE22DePZP74VDTtmqgMTDE2DTYsz1ejTVzPTFik4ssA4LWidg8P9v8Oz02aSOYbxhjUSGEHrI4MIHpxm01QzDDMhPLNjAY5nXkbrNnWAYaY5Pj//XI99bQ/YK1UOdaD64QOw1gcirUDZYrVzBSdq1FLepE1wrNhpcg6NJXtRJ//T4lrbsTpN7mhxu+5poeKHd9zb61/Epr46vCTOlQt3CWjZ8G1qISiCTBrPZs3FYoc2gkwRTwKne1FYFACCDTiEcjnDIS0HbSwkRTMxaitQ0vLajuWdXeEC69odR+TiTfb5EWZ1pJFqZTaOjZo9kdJXhUKzzET6krOUt8p37WFkVpppd8/e6MqXfm8rvR9ipXmOo1xc6dbCaJnwLejEl0XF4jpxzyZgc5lR9n7yZly/F8eyqqyZKO26IiKl209dG/HLhcwkyZrRcnQbMRjGSastRKtruv5edNb0Yo25iqu7HVJbo3JUDLZX4+Uqew5M58ydo++b2ZKHznzzHD3cm8hxG2Fr+qrRiCetcnXWV2S86zpyO/OVL1eZ2XEb5d3fni3aSqooywZ0rSgX9wlTLrSOzroZ+EuecZS5CfClkdhe/wBy2+tQUvK0selCBAkLZRmic1dhTQNYXalMES0H8JA8dk48zEJAMK+3hAhgXfVG0XGZx+vkappPVdNDfATb6FhNB0JSODDPUUKKj7iJlKLtqMp6X4ZVt1/BUpFe2wxyAyV3XUPwo3AmjVQUrhCdPZkXAuXypVffPowl+bQSJr2MjFU3nycTREm1saKmtUpmmPAhFZQECurFS7JPdChm3Fnl4VeEjAtaqZKEGoo7D4eCzmWsC+pFxyXvS1sDukXZOH0/xPlSKFLh2pLnOdXloq7Na40y05ckTy9aKa6jshJxkKAly/5e3yr/9KIqWU8Uv6wrIdgYy6V7pTtaXQtEx1JR1CuEB+P6etGRbH7Ljjt+aDVVEac0YZFwYqZP73C96lqUlRTeKNxZ3rLjK8sWnZwZb55DiKAOeXOW6GRVWH07RN07TSxLyowOn8IP0Sqmj9ptIRp+4qb6qsg6rMKd9eWFXtfPNwVFOu24vdoZETlfoszyP1TXjo6byruQ0iyOpxeVS4GErl+61vX87ZuJYNpXKEnI5sowUwPfpo2UFavD+iGsWys6/fYDRudOiNHsiaHFKPDpWNhatde+VrxMj5y+gpSsPLWfBEjIqDgi/7YeDSKUlqFpOa4jO202eiMs69zdYo5igjimvYCxg0Yh+rH9OFyrdXoUjuNo1K9JGnuwMiA6HWtUKu7dIl5qK+5PQsdm0N1kd2Qdp0ThZC2y4u6o0EfiO9Epgm9b4HyJ2tc7w3uq1mujtv3oOD2M9Cx75IfgYSvcLvsYEKN1s6PsOdqJwbRs5Mo973RHrGtBQX5A5Mm+3ljSfCUKStWBMcNPXdNo2ExbuPoI08lJ9qBUjKr1cpZLzAshbqX+7Gpl6m4LkfEZN2kKVN7c9eWJli7UfohuZCNH1YdnOyMi5ksId1Z5C1xxy/J+U4WL9LdE1KDcgt6ha8h23ZZhpiO+BIm6CkNTUNX2ItrEtk97GSzNmitH/XTc2DQzhR+kM6V57YuWCSJZhE6fsLUnUouhaSzWCUFC/Y2ZoV5cUn/HldJFuE2O+s2vOsSmqWHHBP0FT2pf7d626tokiE7t5dpRoY2CpVOhfa1tKhgHPNMdia3IyTJGsPb14cwRY0DCdS06xZrjgBi9G9e7HTqH0d+l/kag+5Teqa7H87rZJCrecQ+efs+OSwgdLydkLkpFpjlC8NHOouWLzC5Wecdd1zNwvh/Inn9D7TPM9MWnRiKIyoeV6aCmA7llTmEipJs91Kb7IURmPfZVilebdj2ZH8aNVjFqUH9jxj16Wppt2KjHBV0NrjbfL/g4MIUmekGLjoxsxuZ9D4nBnD/24InKYlHXprnHUGePCwml20C/1thcNvExI8G6lh20cZ00yTiECa3zlQSQGcsgICpjGXc4TMElsXYmTTKkBVLXSnORCouNG1iUCfRenKH2GWb6EvtXGy2XHSPxulPnkFL0OGqiqXm7BhBKC2B9hHMuXVBv9dLH8ZRbIyHvF8VU4hF3dOJUP0p1ZwBrLLvrVmwsDUjnKzmi6urFoKb6lnZu90vUEkQMfwrfo56W99BFPgSa30I4fvpKM5qbm7E3nFbbN2RjF/nSR476SFOM8v2P7A2+vGBrJ7aMp0Yi7nQbqnGnnTwMJbvxpijv5jd2Y6065JuW8/hStCeH2p/wWdd+6bmgi82GGUT3S8ip3oglUdX1fhnLuEdTUC+en6FOdGiCXULtTNM2yrjV/9iIbjZlmOmED0GCvp6wTQ9tbYbjpaVxqN2rHCz1c1zzPrQcwEvt0M4xw4+gkRwgy9Txygx8MkojcQTbms7Z57TtcgotEeP2wwy0nZmNwLpYJ5AhJ7kGfGmpjA2HOEuFL0aBjdK5zFCPklOXYwRcu17smypr8iB3jnpoVCTjlZ745nlmR7Yfhx82nO5s9evZUc6Wf/vR5/I3Z37M3ZqmxjccRvV8HSPHNJUv+vLkpO8X5U60kEOdGXdlNrrGSyORULrJ5n6PGs2r62lzO1u2vQchb4iBeIaosVgR7Uk69Znx/0oIpnTcX11HxGXOeU46XtrmAzI7HeorRoUKlw6lSdJsjWXckoBdJtKp04o7sXZm+L/Y6V7Tdzw+jcS2EQSGZqHNsqsyzPSFV/+keST+8TJw8Has26cOTQdohPx0IXre2oQnlRzgjf1pnJ/P8BgnpAV6JPMkXvjRLhxVx5jkQ4K2/NpDd4qcVNzA640XkN06zd4pDBOB2E0b046ZWHdQjPsfGcYL6sjUZi12v9GM5piFCCZutu6VZiQWIhjihdoLKO6fx0IEc9PAGglF+ImpbjYmp0ZCjkAj2rnDTAbEjCljWh/kGGtOrhUGmlBLTmI1WTUStNbGNuBlnoiKuYlgQYJhGIZhmLhh0wbDMAzDMHHDggTDMAzDMHHDggTDMAzDMHHDggTDMAzDMHHDggTDMAzDMHHDggTDMAzDMHHDggTDMAzDMHHDggTDMAzDMHHDggTDMAzDMHEC/H+TkRy5RueW0gAAAABJRU5ErkJggg==;" vertex="1" parent="WIyWlLk6GJQsqaUBKTNV-1">
          <mxGeometry x="130" y="400" width="487.36" height="80" as="geometry" />
        </mxCell>
        <mxCell id="KoPDg6AwPJM6sa3NV6Al-8" style="edgeStyle=orthogonalEdgeStyle;rounded=0;orthogonalLoop=1;jettySize=auto;html=1;entryX=0.5;entryY=1;entryDx=0;entryDy=0;" edge="1" parent="WIyWlLk6GJQsqaUBKTNV-1" source="KoPDg6AwPJM6sa3NV6Al-6" target="WIyWlLk6GJQsqaUBKTNV-3">
          <mxGeometry relative="1" as="geometry" />
        </mxCell>
        <mxCell id="KoPDg6AwPJM6sa3NV6Al-6" value="views&lt;div&gt;(Tensors)&lt;/div&gt;" style="rounded=1;whiteSpace=wrap;html=1;fontSize=12;glass=0;strokeWidth=1;shadow=0;fillColor=#f8cecc;strokeColor=#b85450;" vertex="1" parent="WIyWlLk6GJQsqaUBKTNV-1">
          <mxGeometry x="551" y="340" width="120" height="40" as="geometry" />
        </mxCell>
        <mxCell id="KoPDg6AwPJM6sa3NV6Al-9" value="setattr_tensor ：从param 降级成了普通tensor" style="text;html=1;align=center;verticalAlign=middle;whiteSpace=wrap;rounded=0;fillColor=#33FF33;strokeColor=#6c8ebf;" vertex="1" parent="WIyWlLk6GJQsqaUBKTNV-1">
          <mxGeometry x="227" y="330" width="260" height="29" as="geometry" />
        </mxCell>
      </root>
    </mxGraphModel>
  </diagram>
</mxfile>
